<?xml version="1.0" encoding="utf-8"?>
<!-- Generator: Adobe Illustrator 27.1.1, SVG Export Plug-In . SVG Version: 6.00 Build 0)  -->
<svg version="1.1" id="Layer_1" xmlns="http://www.w3.org/2000/svg" xmlns:xlink="http://www.w3.org/1999/xlink" x="0px" y="0px"
	 viewBox="0 0 575 106" style="enable-background:new 0 0 575 106;" xml:space="preserve">
<style type="text/css">
	.st0{fill:#FF0000;}
	.st1{fill:none;}
</style>
<rect class="st0" width="575" height="106"/>
<path d="M40.7,20l24.9,66H49.5l-4.9-13.7H20.4L15.6,86H0l24.8-66H40.7z M24.9,59.6h15.2l-7.6-21.5L24.9,59.6z M102.9,86h-30V20H100
	c10.8,0,19.1,6.8,19.1,17.8c0,5.5-2.4,9.7-6.1,12.6c6.3,2.7,10.5,8.2,10.5,16.3C123.5,78.7,114.5,86,102.9,86z M97.6,45.2
	c4.4,0,6.6-2.2,6.6-6.3c0-4-2.2-6.2-6.6-6.2h-9.9v12.5H97.6z M100.4,57.8H87.7v15.5h12.7c5.5,0,8.2-2.7,8.2-7.7
	C108.6,60.6,105.9,57.8,100.4,57.8z M164.3,18.2c19.7,0,34.6,14.6,34.6,34.8S184,87.8,164.3,87.8c-19.6,0-34.5-14.6-34.5-34.8
	S144.7,18.2,164.3,18.2z M164.3,74.9c11.6,0,20.1-8.3,20.1-21.9s-8.5-21.9-20.1-21.9c-11.5,0-20,8.3-20,21.9S152.8,74.9,164.3,74.9z
	 M266,60.4c0,17.6-11.5,27.4-29,27.4s-29-9.8-29-27.4V20h14.6v40.8c0,8.6,5.9,13.5,14.6,13.5s14.6-4.9,14.6-13.5V20H266V60.4z
	 M291.5,86V32.7h-17.4V20h49.3v12.7h-17.3V86H291.5z"/>
<rect x="2" y="-147.83" class="st1" width="572.33" height="68"/>
<text transform="matrix(1 0 0 1 247.1387 -80.8323)" style="font-family:'ShermanSans-Bold'; font-size:100px;">About</text>
</svg>
