<?xml version="1.0" encoding="utf-8"?>
<!-- Generator: Adobe Illustrator 27.1.1, SVG Export Plug-In . SVG Version: 6.00 Build 0)  -->
<svg version="1.1" id="Layer_1" xmlns="http://www.w3.org/2000/svg" xmlns:xlink="http://www.w3.org/1999/xlink" x="0px" y="0px"
	 viewBox="0 0 575 106" style="enable-background:new 0 0 575 106;" xml:space="preserve">
<style type="text/css">
	.st0{fill:#FF0000;}
	.st1{fill:none;}
</style>
<rect class="st0" width="575" height="106"/>
<rect x="2" y="-148.71" class="st1" width="572.33" height="68"/>
<text transform="matrix(1 0 0 1 247.1387 -81.7066)" style="font-family:'ShermanSans-Bold'; font-size:100px;">About</text>
<path d="M51.3,37.2c-3.3-3.2-8.9-6.1-15.7-6.1c-13,0-21.1,8.1-21.1,21.9s8.1,21.9,19.8,21.9c6.4,0,11.8-2.4,15.6-6l8,10.2
	c-6,5.5-14.4,8.7-23.6,8.7C14,87.8,0,73.2,0,53s14-34.8,34.3-34.8c8.1,0,14.4,1.7,19.9,5.6L51.3,37.2z M95.1,18.2
	c19.7,0,34.6,14.6,34.6,34.8s-14.9,34.8-34.6,34.8c-19.6,0-34.5-14.6-34.5-34.8S75.5,18.2,95.1,18.2z M95.1,74.9
	c11.6,0,20.1-8.3,20.1-21.9s-8.5-21.9-20.1-21.9c-11.5,0-20,8.3-20,21.9S83.6,74.9,95.1,74.9z M173.2,20l24.9,66H182l-4.9-13.7
	h-24.2L148.1,86h-15.6l24.8-66H173.2z M157.4,59.6h15.2L165,38.1L157.4,59.6z M252.2,37.2c-3.3-3.2-8.9-6.1-15.7-6.1
	c-13,0-21.1,8.1-21.1,21.9s8.1,21.9,19.8,21.9c6.4,0,11.8-2.4,15.6-6l8,10.2c-6,5.5-14.4,8.7-23.6,8.7c-20.3,0-34.3-14.6-34.3-34.8
	s14-34.8,34.3-34.8c8.1,0,14.4,1.7,19.9,5.6L252.2,37.2z M308,86V57.8h-26.4V86H267V20h14.6v25.2H308V20h14.6v66H308z M378.4,86h-44
	V20h43.5v12.7H349v12.5h25.3v12.6H349v15.5h29.4V86z M427.2,35.8c-3-2.1-9.5-4.6-16.1-4.6c-6.9,0-10.7,2.3-10.7,6.1
	c0,4.1,2.7,5.7,11,7.5c12.3,2.6,21.6,6.8,21.6,21.1c0,12.7-8.9,21.9-26.4,21.9c-10,0-17.8-3.4-21.2-5.7l2.3-13.4
	c3.7,2.8,10.9,6.1,18.8,6.1c7.6,0,12-2.8,12-7.8c0-5.3-3.5-7.2-13.3-9.7c-11.1-2.6-19.3-6.6-19.3-19.2c0-11.3,8.9-19.9,24.3-19.9
	c10.4,0,16.9,3.2,19.4,5.1L427.2,35.8z"/>
</svg>
