<?xml version="1.0" encoding="utf-8"?>
<!-- Generator: Adobe Illustrator 27.1.1, SVG Export Plug-In . SVG Version: 6.00 Build 0)  -->
<svg version="1.1" id="Layer_1" xmlns="http://www.w3.org/2000/svg" xmlns:xlink="http://www.w3.org/1999/xlink" x="0px" y="0px"
	 viewBox="0 0 575 106" style="enable-background:new 0 0 575 106;" xml:space="preserve">
<style type="text/css">
	.st0{fill:#FF0000;}
	.st1{fill:none;}
</style>
<rect y="-0.4" class="st0" width="575" height="106"/>
<rect x="2" y="-147.8" class="st1" width="572.3" height="68"/>
<path d="M34.5,17.8c19.7,0,34.6,14.6,34.6,34.8S54.2,87.4,34.5,87.4C14.9,87.4,0,72.8,0,52.6S14.9,17.8,34.5,17.8z M34.5,74.5
	c11.6,0,20.1-8.3,20.1-21.9s-8.5-21.9-20.1-21.9c-11.5,0-20,8.3-20,21.9S23,74.5,34.5,74.5z M93.2,85.6l-24.8-66h16.1l16.8,47.9
	l17.1-47.9H134l-24.9,66H93.2z M183.4,85.6h-44v-66h43.5v12.7H154v12.5h25.3v12.6H154v15.5h29.4V85.6z M207.4,85.6h-14.6v-66h27.9
	c12.7,0,22.6,8.1,22.6,21.2c0,9.7-5.5,16.7-13.5,19.7l19.3,25.1h-17.2L214.4,62h-7V85.6z M219,49.3c6,0,9.1-3.1,9.1-8.5
	c0-5.5-3.1-8.5-9.1-8.5h-11.6v17H219z M270.8,85.6l-24.8-66h16.1l16.8,47.9L296,19.6h15.6l-24.9,66H270.8z M317.2,85.6v-66h14.6v66
	H317.2z M387.3,85.6h-44v-66h43.5v12.7h-28.9v12.5h25.3v12.6h-25.3v15.5h29.4V85.6z M451.2,85.6l-10.9-30.1l-13.4,30.1H414l-22.5-66
	h15.7l14.9,47L434.3,39l-7-19.4H443l15.7,46.8l15-46.8H489l-23.5,66C465.5,85.6,451.2,85.6,451.2,85.6z"/>
</svg>
