<?xml version="1.0" encoding="utf-8"?>
<!-- Generator: Adobe Illustrator 27.1.1, SVG Export Plug-In . SVG Version: 6.00 Build 0)  -->
<svg version="1.1" id="Layer_1" xmlns="http://www.w3.org/2000/svg" xmlns:xlink="http://www.w3.org/1999/xlink" x="0px" y="0px"
	 viewBox="0 0 575 106" style="enable-background:new 0 0 575 106;" xml:space="preserve">
<style type="text/css">
	.st0{fill:#FF0000;}
	.st1{fill:none;}
</style>
<rect class="st0" width="575" height="106"/>
<rect x="2" y="-148.42" class="st1" width="572.33" height="68"/>
<text transform="matrix(1 0 0 1 247.1387 -81.4152)" style="font-family:'ShermanSans-Bold'; font-size:100px;">About</text>
<path d="M41.8,35.8c-3-2.1-9.5-4.6-16.1-4.6c-6.9,0-10.7,2.3-10.7,6.1c0,4.1,2.7,5.7,11,7.5c12.3,2.6,21.6,6.8,21.6,21.1
	c0,12.7-8.9,21.9-26.4,21.9c-10,0-17.8-3.4-21.2-5.7l2.3-13.4c3.7,2.8,10.9,6.1,18.8,6.1c7.6,0,12-2.8,12-7.8
	c0-5.3-3.5-7.2-13.3-9.7C8.7,54.7,0.5,50.7,0.5,38.1c0-11.3,8.9-19.9,24.3-19.9c10.4,0,16.9,3.2,19.4,5.1L41.8,35.8z M104.8,37.2
	c-3.3-3.2-8.9-6.1-15.7-6.1C76.1,31.1,68,39.2,68,53s8.1,21.9,19.8,21.9c6.4,0,11.8-2.4,15.6-6l8,10.2c-6,5.5-14.4,8.7-23.6,8.7
	c-20.3,0-34.3-14.6-34.3-34.8s14-34.8,34.3-34.8c8.1,0,14.4,1.7,19.9,5.6L104.8,37.2z M160.6,86V57.8h-26.4V86h-14.6V20h14.6v25.2
	h26.4V20h14.6v66H160.6z M231,86h-44V20h43.5v12.7h-28.9v12.5h25.3v12.6h-25.3v15.5H231V86z M264.3,86h-23.5V20h23.5
	c19.9,0,36.7,11,36.7,33S284.2,86,264.3,86z M262.8,73.3c12.7,0,23.2-5,23.2-20.3s-10.5-20.3-23.2-20.3h-7.4v40.6H262.8z
	 M367.1,60.4c0,17.6-11.5,27.4-29,27.4s-29-9.8-29-27.4V20h14.6v40.8c0,8.6,5.9,13.5,14.6,13.5s14.6-4.9,14.6-13.5V20h14.2
	L367.1,60.4L367.1,60.4z M393.3,20v53.3h24.9V86h-39.5V20H393.3z M470.5,86h-44V20H470v12.7h-28.9v12.5h25.3v12.6h-25.3v15.5h29.4
	V86z"/>
</svg>
