<?xml version="1.0" encoding="utf-8"?>
<!-- Generator: Adobe Illustrator 27.1.1, SVG Export Plug-In . SVG Version: 6.00 Build 0)  -->
<svg version="1.1" id="Artwork" xmlns="http://www.w3.org/2000/svg" xmlns:xlink="http://www.w3.org/1999/xlink" x="0px" y="0px"
	 viewBox="0 0 257.43 125.09" style="enable-background:new 0 0 257.43 125.09;" xml:space="preserve">
<style type="text/css">
	.st0{fill:#FFFFFF;}
	.st1{fill:#F76900;}
</style>
<path class="st0" d="M35.95,95.82h-1.31L21.82,81.03v13.02l1.51,0.32v1.28h-4.99v-1.28l1.51-0.32V78.77
	c-0.46-0.55-0.84-0.93-1.51-0.99V76.5h3.25l12.39,14.27V78.1l-1.51-0.32V76.5h4.99v1.28l-1.51,0.32V95.82z M41.34,90.02
	c0.12,2.23,1.6,4,3.63,4c1.77,0,2.99-0.78,3.89-2.12l0.61,0.38c-0.49,2.23-2.38,3.8-5.19,3.8c-2.87,0-5.34-2.06-5.34-5.8
	c0-5.08,3.05-7.25,5.86-7.25c2.64,0,4.84,1.57,4.84,5.28l-0.46,0.7L41.34,90.02z M41.4,88.52l5.66-0.75c0-2.29-1.16-3.25-2.38-3.25
	C42.5,84.51,41.49,86.34,41.4,88.52z M57.36,83.47h5.31v1.1l-1.42,0.35l3.34,7.51l2.84-7.54l-1.36-0.32v-1.1h4.26v1.1
	c-0.73,0.17-1.28,0.44-1.6,1.25l-3.97,10.12h-1.13l-3.25-7.17l-3.28,7.17h-1.16l-3.92-10.09c-0.32-0.81-0.46-0.99-1.65-1.28v-1.1
	h5.31v1.1l-1.42,0.35l2.87,7.54l2.44-5.51l-0.49-1.1c-0.35-0.78-0.52-0.99-1.71-1.28v-1.1H57.36z M71.08,95.65v-1.1l1.16-0.29v-15
	l-1.45-0.41v-1.02c1.42-0.23,2.12-0.7,2.76-1.65l1.02,0.17v8.96c1.42-1.3,3.02-2.29,4.76-2.29c1.83,0,3.22,1.25,3.22,2.87v8.3
	L84,94.54v1.1h-4.93v-1.1l1.16-0.29v-7.22c0-1.25-0.61-1.91-1.74-1.91c-0.87,0-2.44,0.38-3.92,1.68v7.4l1.45,0.35v1.1
	C76.02,95.65,71.08,95.65,71.08,95.65z M97.42,89.41c0,3.97-3.02,6.67-6.38,6.67c-3.37,0-6.09-2.46-6.09-6.38
	c0-3.97,3.02-6.67,6.38-6.67C94.7,83.03,97.42,85.5,97.42,89.41z M94.99,89.94c0-3.42-1.83-5.37-3.92-5.37
	c-2.03,0-3.68,1.36-3.68,4.61c0,3.42,1.83,5.37,3.92,5.37C93.33,94.55,94.99,93.19,94.99,89.94z M99.72,84.92l-1.45-0.35v-1.1h3.77
	v8.62c0,1.25,0.61,1.92,1.74,1.92c0.87,0,2.44-0.38,3.92-1.68v-7.4l-1.45-0.35v-1.1h3.77v10.07h1.45v1.1
	c-0.96,0.23-1.97,0.64-2.76,1.28l-1.02-0.17l0.15-2.09c-1.45,1.39-3.1,2.44-4.9,2.44c-1.83,0-3.22-1.25-3.22-2.87
	C99.72,93.24,99.72,84.92,99.72,84.92z M113.88,95.65h-0.73l-0.58-3.54l0.87-0.2c0.7,1.45,2.12,2.79,3.92,2.79
	c1.6,0,2.23-1.07,2.23-1.86c0-2.7-6.58-2.23-6.58-6.32c0-1.91,1.65-3.48,3.77-3.48c1.22,0,2.2,0.41,2.73,0.81l0.12-0.38h0.9
	l0.55,3.1l-0.87,0.2c-0.38-0.84-1.33-2.35-3.16-2.35c-1.28,0-1.83,0.78-1.83,1.48c0,2.46,6.53,1.86,6.53,6.15
	c0,2.41-2.09,4.03-4.41,4.03c-1.25,0-2.67-0.7-3.16-1.33L113.88,95.65z M125.43,90.02c0.12,2.23,1.6,4,3.63,4
	c1.77,0,2.99-0.78,3.89-2.12l0.61,0.38c-0.49,2.23-2.38,3.8-5.19,3.8c-2.87,0-5.34-2.06-5.34-5.8c0-5.08,3.05-7.25,5.86-7.25
	c2.64,0,4.84,1.57,4.84,5.28l-0.46,0.7L125.43,90.02z M125.49,88.52l5.66-0.75c0-2.29-1.16-3.25-2.38-3.25
	C126.59,84.51,125.58,86.34,125.49,88.52z M140.77,95.65l-1.07-5.05l1.36-0.49c0.84,1.86,2.5,4.21,5.51,4.21
	c1.89,0,3.8-1.04,3.8-3.48c0-4.64-9.83-3.66-9.83-9.54c0-3.48,2.67-5.22,5.74-5.22c2.06,0,3.22,0.9,3.6,1.36l0.35-0.93h1.16
	l1.16,4.55l-1.36,0.49c-0.81-1.77-2.5-3.71-4.93-3.71c-2.12,0-3.1,1.25-3.1,2.81c0,4.21,9.83,3.13,9.83,9.51
	c0,4.29-3.65,5.92-6.56,5.92c-1.68,0-3.02-0.55-4.18-1.33l-0.35,0.9C141.9,95.65,140.77,95.65,140.77,95.65z M165.39,85.35
	c0,0.87-0.84,1.39-1.65,1.42c-0.46-1.16-1.25-1.94-2.78-1.94c-2.18,0-3.89,1.83-3.89,4.93c0,2.58,1.65,4.26,3.89,4.26
	c1.68,0,2.9-0.78,3.74-1.86l0.61,0.38c-0.43,1.88-2.18,3.54-5.25,3.54c-2.87,0-5.42-2-5.42-5.74c0-4.61,3.71-7.31,7.11-7.31
	C163.48,83.03,165.39,83.76,165.39,85.35z M166.36,95.65v-1.1l1.16-0.29v-15l-1.45-0.41v-1.02c1.42-0.23,2.12-0.7,2.76-1.65
	l1.02,0.17v8.96c1.42-1.3,3.02-2.29,4.76-2.29c1.83,0,3.22,1.25,3.22,2.87v8.3l1.45,0.35v1.1h-4.93v-1.1l1.16-0.29v-7.22
	c0-1.25-0.61-1.91-1.74-1.91c-0.87,0-2.44,0.38-3.92,1.68v7.4l1.45,0.35v1.1C171.3,95.65,166.36,95.65,166.36,95.65z M192.7,89.41
	c0,3.97-3.02,6.67-6.38,6.67s-6.09-2.46-6.09-6.38c0-3.97,3.02-6.67,6.38-6.67S192.7,85.5,192.7,89.41z M190.27,89.94
	c0-3.42-1.83-5.37-3.92-5.37c-2.03,0-3.68,1.36-3.68,4.61c0,3.42,1.83,5.37,3.92,5.37C188.61,94.55,190.27,93.19,190.27,89.94z
	 M206.64,89.41c0,3.97-3.02,6.67-6.38,6.67s-6.09-2.46-6.09-6.38c0-3.97,3.02-6.67,6.38-6.67S206.64,85.5,206.64,89.41z
	 M204.21,89.94c0-3.42-1.83-5.37-3.92-5.37c-2.03,0-3.68,1.36-3.68,4.61c0,3.42,1.83,5.37,3.92,5.37
	C202.55,94.55,204.21,93.19,204.21,89.94z M207.75,95.65v-1.1l1.3-0.32V79.26l-1.45-0.41v-1.02c1.42-0.23,2.12-0.7,2.76-1.65
	l1.02,0.17v17.87l1.3,0.32v1.1h-4.93V95.65z M231.38,89.41c0,3.97-3.02,6.67-6.38,6.67s-6.09-2.46-6.09-6.38
	c0-3.97,3.02-6.67,6.38-6.67C228.66,83.03,231.38,85.5,231.38,89.41z M228.95,89.94c0-3.42-1.83-5.37-3.92-5.37
	c-2.03,0-3.68,1.36-3.68,4.61c0,3.42,1.83,5.37,3.92,5.37C227.29,94.55,228.95,93.19,228.95,89.94z M241.67,77.81
	c0,0.96-0.81,1.45-1.62,1.45c-0.09-0.67-0.61-1.51-1.62-1.51c-0.93,0-2.09,0.7-2.09,2.96v2.75h3.19v1.45h-3.19v9.28l1.89,0.35v1.1
	h-5.51v-1.1l1.31-0.32v-9.31h-1.89v-1.1l1.89-0.35v-1.48c0-3.66,2.32-5.92,5.08-5.92C240.33,76.07,241.67,76.62,241.67,77.81z
	 M4.24,117.08v5.98l1.8,0.32v1.28H0v-1.28l1.51-0.32V107.1L0,106.78v-1.28h7.48c3.65,0,6.64,2.17,6.64,5.74c0,4-2.87,6.12-6.76,6.12
	C6.15,117.37,4.58,117.17,4.24,117.08z M4.24,107.16v8.09c0.44,0.14,1.39,0.46,2.49,0.46c2.67,0,4.61-1.01,4.61-3.89
	c0-3.02-1.68-4.67-4.99-4.67H4.24V107.16z M16.79,113.92l-1.45-0.35v-1.1h3.77v8.62c0,1.25,0.61,1.92,1.74,1.92
	c0.87,0,2.44-0.38,3.92-1.68v-7.4l-1.45-0.35v-1.1h3.77v10.07h1.45v1.1c-0.96,0.23-1.97,0.64-2.76,1.28l-1.02-0.17l0.15-2.09
	c-1.45,1.39-3.1,2.44-4.9,2.44c-1.83,0-3.22-1.25-3.22-2.87V113.92z M32.52,113.95c0.99-1.1,2.49-1.91,4.21-1.91
	c2.87,0,5.28,2.06,5.28,5.8c0,5.1-3.68,7.25-6.56,7.25c-1.68,0-2.93-0.52-3.77-1.16l-0.46,0.81l-1.02-0.17v-16.3l-1.45-0.41v-1.02
	c1.42-0.23,2.12-0.7,2.76-1.65l1.02,0.17L32.52,113.95L32.52,113.95z M32.52,115.6v7.14c0.49,0.35,1.48,0.73,2.64,0.73
	c2.06,0,4.41-1.36,4.41-5.05c0-2.58-1.51-4.32-3.74-4.32C34.55,114.09,33.33,114.73,32.52,115.6z M43.11,124.65v-1.1l1.31-0.32
	v-14.97l-1.45-0.41v-1.02c1.42-0.23,2.12-0.7,2.76-1.65l1.02,0.17v17.87l1.31,0.32v1.1h-4.95V124.65z M49.41,124.65v-1.1l1.31-0.32
	v-8.3l-1.45-0.41v-1.01c1.42-0.23,2.12-0.7,2.76-1.65l1.02,0.17v11.2l1.31,0.32v1.1L49.41,124.65L49.41,124.65z M52.02,106.99
	c0.81,0,1.45,0.64,1.45,1.45s-0.64,1.45-1.45,1.45s-1.45-0.64-1.45-1.45C50.57,107.62,51.21,106.99,52.02,106.99z M66.11,114.35
	c0,0.87-0.84,1.39-1.65,1.42c-0.46-1.16-1.25-1.94-2.78-1.94c-2.18,0-3.89,1.83-3.89,4.93c0,2.58,1.65,4.26,3.89,4.26
	c1.68,0,2.9-0.78,3.74-1.86l0.61,0.38c-0.44,1.88-2.18,3.54-5.25,3.54c-2.87,0-5.42-2-5.42-5.74c0-4.61,3.71-7.31,7.11-7.31
	C64.2,112.03,66.11,112.76,66.11,114.35z M72.35,115.28c0-6.06,4.64-10.21,9.78-10.21c3.16,0,5.31,1.33,6.18,2.15l0.32-0.84h1.02
	l1.19,4.58l-1.25,0.46c-0.9-1.68-3.07-4.32-7.08-4.32c-3.66,0-7.37,2.15-7.37,7.54c0,5.19,3.48,8.5,7.57,8.5
	c3.54,0,6.18-2.61,7.17-4.76l1.28,0.46l-0.84,3.86c-0.29,0-0.58,0.03-1.02,0.17c-1.22,0.41-3.16,2.2-7.11,2.2
	C76.49,125.09,72.35,121.26,72.35,115.28z M105.41,118.41c0,3.97-3.02,6.67-6.38,6.67c-3.37,0-6.09-2.46-6.09-6.38
	c0-3.97,3.02-6.67,6.38-6.67C102.68,112.03,105.41,114.5,105.41,118.41z M102.97,118.94c0-3.42-1.83-5.37-3.92-5.37
	c-2.03,0-3.68,1.36-3.68,4.61c0,3.42,1.83,5.37,3.92,5.37C101.32,123.55,102.97,122.19,102.97,118.94z M106.74,124.65v-1.1
	l1.16-0.29v-8.33l-1.45-0.41v-1.01c1.42-0.23,2.12-0.7,2.76-1.65l1.02,0.17l-0.15,2.15c1.28-1.19,2.67-2.15,4.32-2.15
	c1.54,0,2.76,0.87,3.1,2.12c1.28-1.19,2.64-2.12,4.29-2.12c1.83,0,3.22,1.25,3.22,2.87v8.3l1.45,0.35v1.1h-4.93v-1.1l1.16-0.29
	v-7.22c0-1.25-0.61-1.91-1.74-1.91c-0.81,0-2.15,0.32-3.34,1.42v7.66l1.45,0.35v1.1h-4.93v-1.1l1.16-0.29v-7.22
	c0-1.25-0.61-1.91-1.74-1.91c-0.81,0-2.15,0.32-3.34,1.42v7.66l1.45,0.35v1.1h-4.92V124.65z M127.92,124.65v-1.1l1.16-0.29v-8.33
	l-1.45-0.41v-1.01c1.42-0.23,2.12-0.7,2.76-1.65l1.02,0.17l-0.15,2.15c1.28-1.19,2.67-2.15,4.32-2.15c1.54,0,2.76,0.87,3.1,2.12
	c1.28-1.19,2.64-2.12,4.29-2.12c1.83,0,3.22,1.25,3.22,2.87v8.3l1.45,0.35v1.1h-4.93v-1.1l1.16-0.29v-7.22
	c0-1.25-0.61-1.91-1.74-1.91c-0.81,0-2.15,0.32-3.34,1.42v7.66l1.45,0.35v1.1h-4.93v-1.1l1.16-0.29v-7.22
	c0-1.25-0.61-1.91-1.74-1.91c-0.81,0-2.15,0.32-3.34,1.42v7.66l1.45,0.35v1.1h-4.92V124.65z M149.6,113.92l-1.45-0.35v-1.1h3.77
	v8.62c0,1.25,0.61,1.92,1.74,1.92c0.87,0,2.44-0.38,3.92-1.68v-7.4l-1.45-0.35v-1.1h3.77v10.07h1.45v1.1
	c-0.96,0.23-1.97,0.64-2.76,1.28l-1.02-0.17l0.15-2.09c-1.45,1.39-3.1,2.44-4.9,2.44c-1.83,0-3.22-1.25-3.22-2.87L149.6,113.92
	L149.6,113.92z M162.74,124.65v-1.1l1.16-0.29v-8.33l-1.45-0.41v-1.01c1.42-0.23,2.12-0.7,2.76-1.65l1.01,0.17l-0.14,2.44
	c1.45-1.39,3.1-2.44,4.9-2.44c1.83,0,3.22,1.25,3.22,2.87v8.3l1.45,0.35v1.1h-4.93v-1.1l1.16-0.29v-7.22c0-1.25-0.61-1.91-1.74-1.91
	c-0.87,0-2.44,0.38-3.92,1.68v7.4l1.45,0.35v1.1L162.74,124.65L162.74,124.65z M177,124.65v-1.1l1.31-0.32v-8.3l-1.45-0.41v-1.01
	c1.42-0.23,2.12-0.7,2.76-1.65l1.01,0.17v11.2l1.31,0.32v1.1L177,124.65L177,124.65z M179.61,106.99c0.81,0,1.45,0.64,1.45,1.45
	s-0.64,1.45-1.45,1.45s-1.45-0.64-1.45-1.45C178.16,107.62,178.8,106.99,179.61,106.99z M193.71,114.35c0,0.87-0.84,1.39-1.65,1.42
	c-0.46-1.16-1.25-1.94-2.79-1.94c-2.18,0-3.89,1.83-3.89,4.93c0,2.58,1.65,4.26,3.89,4.26c1.68,0,2.9-0.78,3.74-1.86l0.61,0.38
	c-0.44,1.88-2.18,3.54-5.25,3.54c-2.87,0-5.42-2-5.42-5.74c0-4.61,3.71-7.31,7.11-7.31C191.79,112.03,193.71,112.76,193.71,114.35z
	 M205.76,123.17l0.29,0.55c-0.09,0.2-0.9,1.28-2.23,1.28c-1.28,0-1.86-0.75-1.89-1.51c-0.67,1.01-1.97,1.59-3.54,1.59
	c-2.44,0-3.54-1.59-3.54-2.9c0-2.03,1.28-3.16,3.54-3.57l3.48-0.64v-2.61c0-1.04-0.73-1.83-1.86-1.83c-1.1,0-1.65,0.46-2.12,0.99
	c0.38,1.77-1.22,2.67-2.7,1.86c0.06-2.64,2.64-4.35,5.08-4.35c2.84,0,3.92,1.65,3.92,3.8v6.76c0,0.46,0.29,0.81,0.73,0.81
	C205.33,123.4,205.65,123.26,205.76,123.17z M201.88,121.49v-2.12l-2.84,0.55c-0.75,0.15-1.94,0.58-1.94,1.89
	c0,0.93,0.67,1.74,1.97,1.74C200.46,123.55,201.5,122.62,201.88,121.49z M207.74,122.5v-8.59h-1.89v-1.1
	c1.6-0.29,2.64-1.74,3.19-3.31l1.01,0.17v2.78h3.19v1.45h-3.19v8.09c0,0.9,0.41,1.39,1.16,1.39c0.55,0,1.07-0.35,1.36-0.7l0.61,0.46
	c-0.32,0.93-1.36,1.91-2.76,1.91C208.9,125.09,207.74,124.19,207.74,122.5z M214.58,124.65v-1.1l1.31-0.32v-8.3l-1.45-0.41v-1.01
	c1.42-0.23,2.12-0.7,2.76-1.65l1.01,0.17v11.2l1.31,0.32v1.1L214.58,124.65L214.58,124.65z M217.19,106.99
	c0.81,0,1.45,0.64,1.45,1.45s-0.64,1.45-1.45,1.45s-1.45-0.64-1.45-1.45C215.74,107.62,216.38,106.99,217.19,106.99z M232.99,118.41
	c0,3.97-3.02,6.67-6.38,6.67s-6.09-2.46-6.09-6.38c0-3.97,3.02-6.67,6.38-6.67C230.27,112.03,232.99,114.5,232.99,118.41z
	 M230.56,118.94c0-3.42-1.83-5.37-3.92-5.37c-2.03,0-3.68,1.36-3.68,4.61c0,3.42,1.83,5.37,3.92,5.37
	C228.9,123.55,230.56,122.19,230.56,118.94z M234.33,124.65v-1.1l1.16-0.29v-8.33l-1.45-0.41v-1.01c1.42-0.23,2.12-0.7,2.76-1.65
	l1.01,0.17l-0.14,2.44c1.45-1.39,3.1-2.44,4.9-2.44c1.83,0,3.22,1.25,3.22,2.87v8.3l1.45,0.35v1.1h-4.93v-1.1l1.16-0.29v-7.22
	c0-1.25-0.61-1.91-1.74-1.91c-0.87,0-2.44,0.38-3.92,1.68v7.4l1.45,0.35v1.1L234.33,124.65L234.33,124.65z M249.57,124.65h-0.72
	l-0.58-3.54l0.87-0.2c0.7,1.45,2.12,2.79,3.92,2.79c1.59,0,2.23-1.07,2.23-1.86c0-2.7-6.58-2.23-6.58-6.32
	c0-1.91,1.65-3.48,3.77-3.48c1.22,0,2.2,0.41,2.73,0.81l0.12-0.38h0.9l0.55,3.1l-0.87,0.2c-0.38-0.84-1.33-2.35-3.16-2.35
	c-1.28,0-1.83,0.78-1.83,1.48c0,2.46,6.53,1.86,6.53,6.15c0,2.41-2.09,4.03-4.41,4.03c-1.25,0-2.67-0.7-3.16-1.33L249.57,124.65z"/>
<g>
	<path id="XMLID_2_" class="st1" d="M135.36,19.12h14.94V8.23C150.06,8,141.96,0.22,141.73,0h-26.97c-0.23,0.23-8.06,7.99-8.3,8.23
		V28.2c0.23,0.23,7.73,7.82,7.97,8.06h20.95v11.58h-13.84v-6.6h-15.07v10.89c0.24,0.24,8.07,8,8.3,8.23h26.97
		c0.23-0.22,8.33-8,8.58-8.24V32.17c-0.23-0.24-7.73-7.83-7.97-8.06h-20.82V12.52h13.84L135.36,19.12L135.36,19.12z"/>
</g>
</svg>
