<svg x="0px" y="0px" viewBox="0 0 412.04 44.55" width="300" xml:space="preserve"><path class="logo-module-scss-module__1Yonta__pixels" d="M9.34,43.4H0V1.16h17.53c8.32,0,14.78,5.25,14.78,13.82c0,8.58-6.46,13.82-14.78,13.82H9.34V43.4z M16.45,20.74 c4.1,0,6.14-2.05,6.14-5.76c0-3.65-2.05-5.7-6.14-5.7h-7.1v11.46H16.45z M36.4,43.4V1.16h9.34V43.4C45.74,43.4,36.4,43.4,36.4,43.4z M74.21,21.96L88.16,43.4H77.4l-8.77-14.72L59.67,43.4h-10.3l13.89-21.44L50.01,1.16h10.62l8.26,14.08l8.38-14.08h10.3L74.21,21.96z M119.91,43.4H91.75V1.16h27.84v8.13H101.1v8h16.19v8.06H101.1v9.92h18.81C119.91,35.27,119.91,43.4,119.91,43.4z M135.39,1.16 v34.11h15.93v8.13h-25.28V1.16H135.39z M181.1,11.27c-1.92-1.34-6.08-2.94-10.3-2.94c-4.42,0-6.85,1.47-6.85,3.9 c0,2.62,1.73,3.65,7.04,4.8c7.87,1.66,13.82,4.35,13.82,13.5c0,8.13-5.7,14.02-16.9,14.02c-6.4,0-11.39-2.18-13.57-3.65l1.47-8.58 c2.37,1.79,6.98,3.9,12.03,3.9c4.86,0,7.68-1.79,7.68-4.99c0-3.39-2.24-4.61-8.51-6.21c-7.1-1.66-12.35-4.22-12.35-12.29 c0-7.23,5.7-12.73,15.55-12.73c6.66,0,10.82,2.05,12.42,3.26L181.1,11.27z"></path><path class="logo-module-scss-module__1Yonta__print" d="M256.34,43.4H247V1.16h17.53c8.32,0,14.78,5.25,14.78,13.82s-6.46,13.82-14.78,13.82h-8.19V43.4z M263.45,20.74 c4.1,0,6.14-2.05,6.14-5.76c0-3.65-2.05-5.7-6.14-5.7h-7.1v11.46H263.45z M292.64,43.4h-9.34V1.16h17.85 c8.13,0,14.46,5.18,14.46,13.57c0,6.21-3.52,10.69-8.64,12.61l12.35,16.06h-11.01l-11.2-15.1h-4.48v15.1H292.64z M300.06,20.17 c3.84,0,5.82-1.98,5.82-5.44c0-3.52-1.98-5.44-5.82-5.44h-7.42v10.88H300.06z M322.94,43.4V1.16h9.34V43.4 C332.28,43.4,322.94,43.4,322.94,43.4z M367.39,27.27V1.16h9.22V43.4h-7.87l-19.77-26.11V43.4h-9.22V1.16h7.87L367.39,27.27z M391.62,43.4V9.29h-11.13V1.16h31.55v8.13h-11.07V43.4H391.62z"></path><path class="logo-module-scss-module__1Yonta__circle" d="M216.55,0.01c12.61,0,22.14,9.34,22.14,22.27s-9.54,22.27-22.14,22.27c-12.54,0-22.08-9.34-22.08-22.27 S204.01,0.01,216.55,0.01z"></path><path class="logo-module-scss-module__1Yonta__ampersand" d="M227.6,18.97c0,2.91-0.77,6.22-2.43,9.05l3.31,2.32l-2.02,4.71l-4.42-3.16c-2.21,1.91-5.11,3.16-8.79,3.16 c-5.41,0-8.57-3.27-8.57-7.14c0-3.05,1.21-5.11,3.5-6.55c-1.18-1.33-1.91-2.91-1.91-5.19c0-3.75,2.72-6.66,7.32-6.66 c4.64,0,7.29,2.72,7.29,6.59c0,2.94-2.02,4.71-4.3,5.85l4.6,3.24c0.96-1.99,1.43-4.23,1.43-6.22H227.6z M218.22,29.09l-5.96-4.34 c-0.26-0.18-0.55-0.37-0.81-0.55c-0.96,0.7-1.51,1.66-1.51,3.09c0,2.02,1.73,3.35,4.05,3.35 C215.61,30.63,217.04,30.04,218.22,29.09z M213.03,19.37c1.73-0.7,2.83-1.66,2.83-3.13c0-1.25-0.99-2.1-2.28-2.1 c-1.25,0-2.32,0.96-2.32,2.17C211.27,17.68,211.93,18.49,213.03,19.37z"></path></svg>