<?xml version="1.0" encoding="utf-8"?>
<!-- Generator: Adobe Illustrator 27.1.1, SVG Export Plug-In . SVG Version: 6.00 Build 0)  -->
<svg version="1.1" id="Artwork" xmlns="http://www.w3.org/2000/svg" xmlns:xlink="http://www.w3.org/1999/xlink" x="0px" y="0px"
	 viewBox="0 0 317.7 87.7" style="enable-background:new 0 0 317.7 87.7;" xml:space="preserve">
<style type="text/css">
	.st0{fill:#F76900;}
	.st1{fill:#FFFFFF;}
</style>
<path class="st0" d="M60.1,26.1l-1.3-6.2l1.7-0.6c1,2.3,3.1,5.2,6.8,5.2c2.3,0,4.7-1.3,4.7-4.3c0-5.7-12-4.5-12-11.7
	c0-4.3,3.3-6.4,7-6.4c2.5,0,3.9,1.1,4.4,1.7l0.4-1.1h1.4l1.4,5.6l-1.7,0.6c-1-2.2-3.1-4.5-6-4.5c-2.6,0-3.8,1.5-3.8,3.4
	c0,5.2,12,3.8,12,11.7c0,5.3-4.5,7.2-8,7.2c-2.1,0-3.7-0.7-5.1-1.6l-0.4,1.1h-1.5V26.1z M81.2,33.9c-1.1,0.5-2.1,0-2.3-0.9l3.6-7
	l-5.4-12c-0.4-1-0.6-1.2-2.1-1.6V11h6.5v1.4l-1.7,0.4l4.1,9.1l4-9.2l-1.7-0.4v-1.4h5.4v1.4c-0.9,0.2-1.6,0.5-2,1.5L84,26.2
	L81.2,33.9z M101.9,14.6c-0.1-0.5-0.7-1.1-1.4-1.1c-1.1,0-2.2,1-3,1.9v8.9l1.8,0.4v1.4h-6v-1.4l1.4-0.4V14.2l-1.8-0.5v-1.2
	c1.7-0.3,2.6-0.9,3.4-2l1.2,0.2l-0.2,3.2c0.8-1.4,2.2-3.2,4.3-3.2c1,0,2.1,0.6,2.1,2C103.7,13.8,102.8,14.6,101.9,14.6 M113,22.2
	v-2.6l-3.5,0.7c-0.9,0.2-2.4,0.7-2.4,2.3c0,1.1,0.8,2.1,2.4,2.1C111.2,24.7,112.5,23.6,113,22.2 M117.7,24.3l0.4,0.7
	c-0.1,0.2-1.1,1.6-2.7,1.6s-2.3-0.9-2.3-1.8c-0.8,1.2-2.4,2-4.3,2c-3,0-4.3-2-4.3-3.6c0-2.5,1.6-3.9,4.3-4.4l4.3-0.8v-3.2
	c0-1.3-0.9-2.2-2.3-2.2s-2,0.6-2.6,1.2c0.5,2.2-1.5,3.3-3.3,2.3c0.1-3.2,3.2-5.3,6.2-5.3c3.5,0,4.8,2,4.8,4.7v8.3c0,0.6,0.4,1,0.9,1
	C117.2,24.5,117.6,24.4,117.7,24.3 M131.8,13.5c0,1.1-1,1.7-2,1.7c-0.6-1.4-1.5-2.4-3.4-2.4c-2.7,0-4.8,2.2-4.8,6
	c0,3.2,2,5.2,4.8,5.2c2.1,0,3.6-1,4.6-2.3l0.7,0.5c-0.5,2.3-2.7,4.3-6.4,4.3c-3.5,0-6.6-2.5-6.6-7c0-5.6,4.5-9,8.7-9
	C129.5,10.6,131.8,11.5,131.8,13.5 M134.9,12.9l-1.8-0.4v-1.4h4.6v10.6c0,1.5,0.7,2.3,2.1,2.3c1.1,0,3-0.5,4.8-2.1v-9.1l-1.8-0.4V11
	h4.6v12.3h1.8v1.4c-1.2,0.3-2.4,0.8-3.4,1.6l-1.2-0.2l0.2-2.6c-1.8,1.7-3.8,3-6,3s-3.9-1.5-3.9-3.5L134.9,12.9L134.9,12.9z
	 M152.3,26.1h-0.9l-0.7-4.3l1.1-0.2c0.9,1.8,2.6,3.4,4.8,3.4c2,0,2.7-1.3,2.7-2.3c0-3.3-8.1-2.7-8.1-7.7c0-2.3,2-4.3,4.6-4.3
	c1.5,0,2.7,0.5,3.3,1l0.1-0.5h1.1L161,15l-1.1,0.2c-0.5-1-1.6-2.9-3.9-2.9c-1.6,0-2.2,1-2.2,1.8c0,3,8,2.3,8,7.5
	c0,2.9-2.6,4.9-5.4,4.9c-1.5,0-3.3-0.9-3.9-1.6L152.3,26.1z M166.7,17.3l6.9-0.9c0-2.8-1.4-4-2.9-4
	C168.1,12.4,166.9,14.7,166.7,17.3 M166.7,19.2c0.1,2.7,2,4.9,4.4,4.9c2.2,0,3.7-1,4.8-2.6l0.7,0.5c-0.6,2.7-2.9,4.7-6.4,4.7
	s-6.5-2.5-6.5-7.1c0-6.2,3.7-8.9,7.2-8.9c3.2,0,5.9,1.9,5.9,6.5l-0.6,0.9L166.7,19.2z M205,17.6c0,5.8-3.4,9.2-9.3,9.2
	c-5.9,0-9.3-3.4-9.3-9.2v-13l-1.8-0.4V2.6h7v1.6l-1.8,0.4v12.5c0,4.5,1.9,7.2,6.6,7.2c3.8,0,6.3-2.6,6.3-7V4.6l-1.8-0.4V2.6h6.1v1.6
	l-2,0.4V17.6z M207.6,26.1v-1.4l1.4-0.4V14.2l-1.8-0.5v-1.2c1.7-0.3,2.6-0.9,3.4-2l1.2,0.2l-0.2,3c1.8-1.7,3.8-3,6-3
	s3.9,1.5,3.9,3.5v10.2l1.8,0.4v1.4h-6v-1.4l1.4-0.4v-8.8c0-1.5-0.7-2.3-2.1-2.3c-1.1,0-3,0.5-4.8,2.1v9.1l1.8,0.4v1.4h-6V26.1z
	 M228.6,4.4c1,0,1.8,0.8,1.8,1.8S229.6,8,228.6,8s-1.8-0.8-1.8-1.8S227.6,4.4,228.6,4.4 M225.4,26.1v-1.4l1.6-0.4V14.2l-1.8-0.5
	v-1.2c1.7-0.3,2.6-0.9,3.4-2l1.2,0.2v13.7l1.6,0.4v1.4h-6V26.1z M231.8,11.1h6.5v1.4l-1.7,0.4l4.1,9.1l4-9.2l-1.7-0.4V11h5.4v1.4
	c-0.9,0.2-1.6,0.5-2,1.5l-5.6,12.4h-1.3l-5.6-12.4c-0.5-1-0.6-1.2-2.1-1.6L231.8,11.1L231.8,11.1z M251.3,17.3l6.9-0.9
	c0-2.8-1.4-4-2.9-4C252.7,12.4,251.4,14.7,251.3,17.3 M251.2,19.2c0.1,2.7,2,4.9,4.4,4.9c2.2,0,3.7-1,4.8-2.6l0.7,0.5
	c-0.6,2.7-2.9,4.7-6.4,4.7s-6.5-2.5-6.5-7.1c0-6.2,3.7-8.9,7.2-8.9c3.2,0,5.9,1.9,5.9,6.5l-0.6,0.9L251.2,19.2z M271.8,14.6
	c-0.1-0.5-0.7-1.1-1.4-1.1c-1.1,0-2.2,1-3,1.9v8.9l1.8,0.4v1.4h-6v-1.4l1.4-0.4V14.2l-1.8-0.5v-1.2c1.7-0.3,2.6-0.9,3.4-2l1.2,0.2
	l-0.2,3.2c0.8-1.4,2.2-3.2,4.3-3.2c1,0,2.1,0.6,2.1,2C273.7,13.8,272.7,14.6,271.8,14.6 M275.9,26.1H275l-0.7-4.3l1.1-0.2
	c0.9,1.8,2.6,3.4,4.8,3.4c2,0,2.7-1.3,2.7-2.3c0-3.3-8.1-2.7-8.1-7.7c0-2.3,2-4.3,4.6-4.3c1.5,0,2.7,0.5,3.3,1l0.1-0.5h1.1l0.7,3.8
	l-1.1,0.2c-0.5-1-1.6-2.9-3.9-2.9c-1.6,0-2.2,1-2.2,1.8c0,3,8,2.3,8,7.5c0,2.9-2.6,4.9-5.4,4.9c-1.5,0-3.3-0.9-3.9-1.6L275.9,26.1z
	 M290.5,4.4c1,0,1.8,0.8,1.8,1.8S291.5,8,290.5,8s-1.8-0.8-1.8-1.8C288.8,5.2,289.5,4.4,290.5,4.4 M287.3,26.1v-1.4l1.6-0.4V14.2
	l-1.8-0.5v-1.2c1.7-0.3,2.6-0.9,3.4-2l1.2,0.2v13.7l1.6,0.4v1.4h-6V26.1z M296.4,23.4V12.9h-2.3v-1.4c2-0.4,3.2-2.1,3.9-4.1l1.2,0.2
	V11h3.9v1.8h-3.9v9.9c0,1.1,0.5,1.7,1.4,1.7c0.7,0,1.3-0.4,1.7-0.9l0.7,0.6c-0.4,1.1-1.7,2.3-3.4,2.3
	C297.8,26.6,296.4,25.5,296.4,23.4 M307.3,33.9c-1.1,0.5-2.1,0-2.3-0.9l3.6-7l-5.4-12c-0.4-1-1.3-1.1-2.3-1.1h-3v-1.8h9.7v1.4
	l-1.7,0.4L310,22l4-9.2l-1.7-0.4V11h5.4v1.4c-0.9,0.2-1.6,0.5-2,1.5L310,26.4L307.3,33.9z"/>
<path class="st1" d="M76.7,58.5h-1.3L62.6,43.7v13l1.5,0.3v1.3h-5V57l1.5-0.3V41.4c-0.5-0.6-0.8-0.9-1.5-1v-1.3h3.2l12.4,14.3V40.7
	l-1.5-0.3v-1.3h5v1.3l-1.5,0.3V58.5z M82.1,52.7c0.1,2.2,1.6,4,3.6,4c1.8,0,3-0.8,3.9-2.1l0.6,0.4c-0.5,2.2-2.4,3.8-5.2,3.8
	c-2.9,0-5.3-2.1-5.3-5.8c0-5.1,3-7.3,5.9-7.3c2.6,0,4.8,1.6,4.8,5.3l-0.5,0.7L82.1,52.7z M82.1,51.2l5.7-0.8c0-2.3-1.2-3.2-2.4-3.2
	C83.2,47.2,82.2,49,82.1,51.2z M98.1,46.1h5.3v1.1l-1.4,0.3l3.3,7.5l2.8-7.5l-1.4-0.3v-1.1h4.3v1.1c-0.7,0.2-1.3,0.4-1.6,1.2
	l-4,10.1h-1.1l-3.2-7.2l-3.3,7.2h-1.2l-3.9-10.1c-0.3-0.8-0.5-1-1.7-1.3V46h5.3v1.1L95,47.6l2.9,7.5l2.4-5.5l-0.5-1.1
	c-0.3-0.8-0.5-1-1.7-1.3C98.1,47.2,98.1,46.1,98.1,46.1z M111.8,58.3v-1.1l1.2-0.3v-15l-1.5-0.4v-1c1.4-0.2,2.1-0.7,2.8-1.7l1,0.2v9
	c1.4-1.3,3-2.3,4.8-2.3s3.2,1.2,3.2,2.9v8.3l1.5,0.3v1.1h-4.9v-1.1l1.2-0.3v-7.2c0-1.2-0.6-1.9-1.7-1.9c-0.9,0-2.4,0.4-3.9,1.7v7.4
	l1.5,0.3v1.1H111.8z M138.2,52.1c0,4-3,6.7-6.4,6.7s-6.1-2.5-6.1-6.4c0-4,3-6.7,6.4-6.7C135.4,45.7,138.2,48.1,138.2,52.1z
	 M135.7,52.6c0-3.4-1.8-5.4-3.9-5.4c-2,0-3.7,1.4-3.7,4.6c0,3.4,1.8,5.4,3.9,5.4C134.1,57.2,135.7,55.8,135.7,52.6z M140.5,47.6
	l-1.5-0.3v-1.1h3.8v8.6c0,1.2,0.6,1.9,1.7,1.9c0.9,0,2.4-0.4,3.9-1.7v-7.4l-1.5-0.3v-1.1h3.8v10.1h1.5v1.1c-1,0.2-2,0.6-2.8,1.3
	l-1-0.2l0.1-2.1c-1.5,1.4-3.1,2.4-4.9,2.4c-1.8,0-3.2-1.2-3.2-2.9v-8.3H140.5z M154.6,58.3h-0.7l-0.6-3.5l0.9-0.2
	c0.7,1.5,2.1,2.8,3.9,2.8c1.6,0,2.2-1.1,2.2-1.9c0-2.7-6.6-2.2-6.6-6.3c0-1.9,1.7-3.5,3.8-3.5c1.2,0,2.2,0.4,2.7,0.8l0.1-0.4h0.9
	l0.6,3.1l-0.9,0.2c-0.4-0.8-1.3-2.3-3.2-2.3c-1.3,0-1.8,0.8-1.8,1.5c0,2.5,6.5,1.9,6.5,6.1c0,2.4-2.1,4-4.4,4
	c-1.2,0-2.7-0.7-3.2-1.3L154.6,58.3z M166.2,52.7c0.1,2.2,1.6,4,3.6,4c1.8,0,3-0.8,3.9-2.1l0.6,0.4c-0.5,2.2-2.4,3.8-5.2,3.8
	c-2.9,0-5.3-2.1-5.3-5.8c0-5.1,3-7.3,5.9-7.3c2.6,0,4.8,1.6,4.8,5.3l-0.5,0.7L166.2,52.7z M166.2,51.2l5.7-0.8
	c0-2.3-1.2-3.2-2.4-3.2C167.3,47.2,166.3,49,166.2,51.2z M181.5,58.3l-1.1-5l1.4-0.5c0.8,1.9,2.5,4.2,5.5,4.2c1.9,0,3.8-1,3.8-3.5
	c0-4.6-9.8-3.7-9.8-9.5c0-3.5,2.7-5.2,5.7-5.2c2.1,0,3.2,0.9,3.6,1.4l0.3-0.9h1.2l1.2,4.6l-1.4,0.5c-0.8-1.8-2.5-3.7-4.9-3.7
	c-2.1,0-3.1,1.2-3.1,2.8c0,4.2,9.8,3.1,9.8,9.5c0,4.3-3.7,5.9-6.6,5.9c-1.7,0-3-0.6-4.2-1.3l-0.3,0.9h-1.1V58.3z M206.1,48
	c0,0.9-0.8,1.4-1.7,1.4c-0.5-1.2-1.2-1.9-2.8-1.9c-2.2,0-3.9,1.8-3.9,4.9c0,2.6,1.7,4.3,3.9,4.3c1.7,0,2.9-0.8,3.7-1.9l0.6,0.4
	c-0.4,1.9-2.2,3.5-5.3,3.5c-2.9,0-5.4-2-5.4-5.7c0-4.6,3.7-7.3,7.1-7.3C204.2,45.7,206.1,46.4,206.1,48z M207.1,58.3v-1.1l1.2-0.3
	v-15l-1.5-0.4v-1c1.4-0.2,2.1-0.7,2.8-1.7l1,0.2v9c1.4-1.3,3-2.3,4.8-2.3s3.2,1.2,3.2,2.9v8.3l1.5,0.3v1.1h-4.9v-1.1l1.2-0.3v-7.2
	c0-1.2-0.6-1.9-1.7-1.9c-0.9,0-2.4,0.4-3.9,1.7v7.4l1.5,0.3v1.1H207.1z M233.4,52.1c0,4-3,6.7-6.4,6.7s-6.1-2.5-6.1-6.4
	c0-4,3-6.7,6.4-6.7C230.7,45.7,233.4,48.1,233.4,52.1z M231,52.6c0-3.4-1.8-5.4-3.9-5.4c-2,0-3.7,1.4-3.7,4.6c0,3.4,1.8,5.4,3.9,5.4
	C229.3,57.2,231,55.8,231,52.6z M247.4,52.1c0,4-3,6.7-6.4,6.7s-6.1-2.5-6.1-6.4c0-4,3-6.7,6.4-6.7
	C244.6,45.7,247.4,48.1,247.4,52.1z M244.9,52.6c0-3.4-1.8-5.4-3.9-5.4c-2,0-3.7,1.4-3.7,4.6c0,3.4,1.8,5.4,3.9,5.4
	C243.3,57.2,244.9,55.8,244.9,52.6z M248.5,58.3v-1.1l1.3-0.3v-15l-1.5-0.4v-1c1.4-0.2,2.1-0.7,2.8-1.7l1,0.2v17.9l1.3,0.3v1.1
	H248.5z M272.1,52.1c0,4-3,6.7-6.4,6.7s-6.1-2.5-6.1-6.4c0-4,3-6.7,6.4-6.7C269.4,45.7,272.1,48.1,272.1,52.1z M269.7,52.6
	c0-3.4-1.8-5.4-3.9-5.4c-2,0-3.7,1.4-3.7,4.6c0,3.4,1.8,5.4,3.9,5.4C268,57.2,269.7,55.8,269.7,52.6z M282.4,40.5
	c0,1-0.8,1.5-1.6,1.5c-0.1-0.7-0.6-1.5-1.6-1.5c-0.9,0-2.1,0.7-2.1,3v2.8h3.2v1.5h-3.2v9.3l1.9,0.3v1.1h-5.5v-1.1l1.3-0.3v-9.3h-1.9
	v-1.1l1.9-0.3v-1.5c0-3.7,2.3-5.9,5.1-5.9C281.1,38.7,282.4,39.3,282.4,40.5z M63.3,79.7v6l1.8,0.3v1.3h-6V86l1.5-0.3v-16l-1.5-0.3
	v-1.3h7.5c3.7,0,6.6,2.2,6.6,5.7c0,4-2.9,6.1-6.8,6.1C65.2,80,63.7,79.8,63.3,79.7z M63.3,69.8v8.1c0.4,0.1,1.4,0.5,2.5,0.5
	c2.7,0,4.6-1,4.6-3.9c0-3-1.7-4.7-5-4.7H63.3z M75.9,76.6l-1.5-0.3v-1.1h3.8v8.6c0,1.2,0.6,1.9,1.7,1.9c0.9,0,2.4-0.4,3.9-1.7v-7.4
	l-1.5-0.3v-1.1h3.8v10.1h1.5v1.1c-1,0.2-2,0.6-2.8,1.3l-1-0.2l0.1-2.1c-1.5,1.4-3.1,2.4-4.9,2.4s-3.2-1.2-3.2-2.9v-8.3H75.9z
	 M91.6,76.6c1-1.1,2.5-1.9,4.2-1.9c2.9,0,5.3,2.1,5.3,5.8c0,5.1-3.7,7.3-6.6,7.3c-1.7,0-2.9-0.5-3.8-1.2l-0.5,0.8l-1-0.2V70.9
	l-1.5-0.4v-1c1.4-0.2,2.1-0.7,2.8-1.7l1,0.2v8.6H91.6z M91.6,78.2v7.1c0.5,0.3,1.5,0.7,2.6,0.7c2.1,0,4.4-1.4,4.4-5
	c0-2.6-1.5-4.3-3.7-4.3C93.6,76.7,92.4,77.4,91.6,78.2z M102.2,87.3v-1.1l1.3-0.3v-15l-1.5-0.4v-1c1.4-0.2,2.1-0.7,2.8-1.7l1,0.2
	v17.9l1.3,0.3v1.1H102.2z M108.5,87.3v-1.1l1.3-0.3v-8.3l-1.5-0.4v-1c1.4-0.2,2.1-0.7,2.8-1.7l1,0.2v11.2l1.3,0.3v1.1
	C113.4,87.3,108.5,87.3,108.5,87.3z M111.1,69.6c0.8,0,1.5,0.6,1.5,1.5s-0.6,1.5-1.5,1.5c-0.8,0-1.5-0.6-1.5-1.5
	S110.3,69.6,111.1,69.6z M125.2,77c0,0.9-0.8,1.4-1.7,1.4c-0.5-1.2-1.2-1.9-2.8-1.9c-2.2,0-3.9,1.8-3.9,4.9c0,2.6,1.7,4.3,3.9,4.3
	c1.7,0,2.9-0.8,3.7-1.9l0.6,0.4c-0.4,1.9-2.2,3.5-5.3,3.5c-2.9,0-5.4-2-5.4-5.7c0-4.6,3.7-7.3,7.1-7.3
	C123.3,74.7,125.2,75.4,125.2,77z M131.4,77.9c0-6.1,4.6-10.2,9.8-10.2c3.2,0,5.3,1.3,6.2,2.1l0.3-0.8h1l1.2,4.6l-1.2,0.5
	c-0.9-1.7-3.1-4.3-7.1-4.3c-3.7,0-7.4,2.1-7.4,7.5c0,5.2,3.5,8.5,7.6,8.5c3.5,0,6.2-2.6,7.2-4.8l1.3,0.5l-0.8,3.9
	c-0.3,0-0.6,0-1,0.2c-1.2,0.4-3.2,2.2-7.1,2.2C135.6,87.7,131.4,83.9,131.4,77.9z M164.5,81.1c0,4-3,6.7-6.4,6.7s-6.1-2.5-6.1-6.4
	c0-4,3-6.7,6.4-6.7C161.8,74.7,164.5,77.1,164.5,81.1z M162,81.6c0-3.4-1.8-5.4-3.9-5.4c-2,0-3.7,1.4-3.7,4.6c0,3.4,1.8,5.4,3.9,5.4
	S162,84.8,162,81.6z M165.8,87.3v-1.1l1.2-0.3v-8.3l-1.5-0.4v-1c1.4-0.2,2.1-0.7,2.8-1.7l1,0.2l-0.1,2.1c1.3-1.2,2.7-2.1,4.3-2.1
	c1.5,0,2.8,0.9,3.1,2.1c1.3-1.2,2.6-2.1,4.3-2.1c1.8,0,3.2,1.2,3.2,2.9v8.3l1.5,0.3v1.1h-4.9v-1.1l1.2-0.3v-7.2
	c0-1.2-0.6-1.9-1.7-1.9c-0.8,0-2.1,0.3-3.3,1.4v7.7l1.5,0.3v1.1h-4.9v-1.1l1.2-0.3v-7.2c0-1.2-0.6-1.9-1.7-1.9
	c-0.8,0-2.1,0.3-3.3,1.4v7.7l1.5,0.3v1.1H165.8z M187,87.3v-1.1l1.2-0.3v-8.3l-1.5-0.4v-1c1.4-0.2,2.1-0.7,2.8-1.7l1,0.2l-0.1,2.1
	c1.3-1.2,2.7-2.1,4.3-2.1c1.5,0,2.8,0.9,3.1,2.1c1.3-1.2,2.6-2.1,4.3-2.1c1.8,0,3.2,1.2,3.2,2.9v8.3l1.5,0.3v1.1h-4.9v-1.1l1.2-0.3
	v-7.2c0-1.2-0.6-1.9-1.7-1.9c-0.8,0-2.1,0.3-3.3,1.4v7.7l1.5,0.3v1.1h-4.9v-1.1l1.2-0.3v-7.2c0-1.2-0.6-1.9-1.7-1.9
	c-0.8,0-2.1,0.3-3.3,1.4v7.7l1.5,0.3v1.1H187z M208.7,76.6l-1.5-0.3v-1.1h3.8v8.6c0,1.2,0.6,1.9,1.7,1.9c0.9,0,2.4-0.4,3.9-1.7v-7.4
	l-1.5-0.3v-1.1h3.8v10.1h1.5v1.1c-1,0.2-2,0.6-2.8,1.3l-1-0.2l0.1-2.1c-1.5,1.4-3.1,2.4-4.9,2.4c-1.8,0-3.2-1.2-3.2-2.9v-8.3H208.7z
	 M221.8,87.3v-1.1l1.2-0.3v-8.3l-1.5-0.4v-1c1.4-0.2,2.1-0.7,2.8-1.7l1,0.2l-0.1,2.4c1.5-1.4,3.1-2.4,4.9-2.4c1.8,0,3.2,1.2,3.2,2.9
	v8.3l1.5,0.3v1.1h-4.9v-1.1l1.2-0.3v-7.2c0-1.2-0.6-1.9-1.7-1.9c-0.9,0-2.4,0.4-3.9,1.7v7.4l1.5,0.3v1.1H221.8z M236.1,87.3v-1.1
	l1.3-0.3v-8.3l-1.5-0.4v-1c1.4-0.2,2.1-0.7,2.8-1.7l1,0.2v11.2l1.3,0.3v1.1C241,87.3,236.1,87.3,236.1,87.3z M238.7,69.6
	c0.8,0,1.5,0.6,1.5,1.5s-0.6,1.5-1.5,1.5c-0.8,0-1.5-0.6-1.5-1.5S237.9,69.6,238.7,69.6z M252.8,77c0,0.9-0.8,1.4-1.7,1.4
	c-0.5-1.2-1.2-1.9-2.8-1.9c-2.2,0-3.9,1.8-3.9,4.9c0,2.6,1.7,4.3,3.9,4.3c1.7,0,2.9-0.8,3.7-1.9l0.6,0.4c-0.4,1.9-2.2,3.5-5.3,3.5
	c-2.9,0-5.4-2-5.4-5.7c0-4.6,3.7-7.3,7.1-7.3C250.9,74.7,252.8,75.4,252.8,77z M264.8,85.8l0.3,0.6c-0.1,0.2-0.9,1.3-2.2,1.3
	c-1.3,0-1.9-0.8-1.9-1.5c-0.7,1-2,1.6-3.5,1.6c-2.4,0-3.5-1.6-3.5-2.9c0-2,1.3-3.2,3.5-3.6l3.5-0.6V78c0-1-0.7-1.8-1.9-1.8
	c-1.1,0-1.7,0.5-2.1,1c0.4,1.8-1.2,2.7-2.7,1.9c0.1-2.6,2.6-4.4,5.1-4.4c2.8,0,3.9,1.7,3.9,3.8v6.8c0,0.5,0.3,0.8,0.7,0.8
	C264.4,86.1,264.7,85.9,264.8,85.8z M261,84.1V82l-2.8,0.6c-0.8,0.1-1.9,0.6-1.9,1.9c0,0.9,0.7,1.7,2,1.7
	C259.5,86.2,260.6,85.3,261,84.1z M266.8,85.2v-8.6h-1.9v-1.1c1.6-0.3,2.6-1.7,3.2-3.3l1,0.2v2.8h3.2v1.5h-3.2v8.1
	c0,0.9,0.4,1.4,1.2,1.4c0.6,0,1.1-0.3,1.4-0.7l0.6,0.5c-0.3,0.9-1.4,1.9-2.8,1.9C268,87.7,266.8,86.8,266.8,85.2z M273.7,87.3v-1.1
	l1.3-0.3v-8.3l-1.5-0.4v-1c1.4-0.2,2.1-0.7,2.8-1.7l1,0.2v11.2l1.3,0.3v1.1C278.6,87.3,273.7,87.3,273.7,87.3z M276.3,69.6
	c0.8,0,1.5,0.6,1.5,1.5s-0.6,1.5-1.5,1.5c-0.8,0-1.5-0.6-1.5-1.5S275.4,69.6,276.3,69.6z M292.1,81.1c0,4-3,6.7-6.4,6.7
	s-6.1-2.5-6.1-6.4c0-4,3-6.7,6.4-6.7C289.3,74.7,292.1,77.1,292.1,81.1z M289.6,81.6c0-3.4-1.8-5.4-3.9-5.4c-2,0-3.7,1.4-3.7,4.6
	c0,3.4,1.8,5.4,3.9,5.4S289.6,84.8,289.6,81.6z M293.4,87.3v-1.1l1.2-0.3v-8.3l-1.5-0.4v-1c1.4-0.2,2.1-0.7,2.8-1.7l1,0.2l-0.1,2.4
	c1.5-1.4,3.1-2.4,4.9-2.4s3.2,1.2,3.2,2.9v8.3l1.5,0.3v1.1h-4.9v-1.1l1.2-0.3v-7.2c0-1.2-0.6-1.9-1.7-1.9c-0.9,0-2.4,0.4-3.9,1.7
	v7.4l1.5,0.3v1.1H293.4z M308.6,87.3h-0.7l-0.6-3.5l0.9-0.2c0.7,1.5,2.1,2.8,3.9,2.8c1.6,0,2.2-1.1,2.2-1.9c0-2.7-6.6-2.2-6.6-6.3
	c0-1.9,1.7-3.5,3.8-3.5c1.2,0,2.2,0.4,2.7,0.8l0.1-0.4h0.9l0.6,3.1l-0.9,0.2c-0.4-0.8-1.3-2.3-3.2-2.3c-1.3,0-1.8,0.8-1.8,1.5
	c0,2.5,6.5,1.9,6.5,6.1c0,2.4-2.1,4-4.4,4c-1.2,0-2.7-0.7-3.2-1.3L308.6,87.3z"/>
<g>
	<path id="XMLID_2_" class="st0" d="M28.9,19.1h14.9V8.2c-0.2-0.2-8.3-8-8.6-8.2h-27C8.1,0.2,0.2,8,0,8.2v20c0.2,0.2,7.7,7.8,8,8.1
		h20.9v11.6H15.1v-6.6L0,41.2v10.9c0.2,0.2,8.1,8,8.3,8.2h27c0.2-0.2,8.3-8,8.6-8.2v-20c-0.2-0.2-7.7-7.8-8-8.1H15.1V12.5h13.8
		C28.9,12.5,28.9,19.1,28.9,19.1z"/>
</g>
</svg>
