<?xml version="1.0" encoding="utf-8"?>
<!-- Generator: Adobe Illustrator 28.1.0, SVG Export Plug-In . SVG Version: 6.00 Build 0)  -->
<svg version="1.1" id="Artwork" xmlns="http://www.w3.org/2000/svg" xmlns:xlink="http://www.w3.org/1999/xlink" x="0px" y="0px"
	 viewBox="0 0 257.4 125.1" style="enable-background:new 0 0 257.4 125.1;" xml:space="preserve">
<style type="text/css">
	.st0{fill:#000E54;}
	.st1{fill:#F76900;}
</style>
<path class="st0" d="M36,95.8h-1.3L21.8,81v13l1.5,0.3v1.3h-5v-1.3l1.5-0.3V78.8c-0.5-0.6-0.8-0.9-1.5-1v-1.3h3.2L34,90.8V78.1
	l-1.5-0.3v-1.3h5v1.3L36,78.1V95.8z M41.3,90c0.1,2.2,1.6,4,3.6,4c1.8,0,3-0.8,3.9-2.1l0.6,0.4c-0.5,2.2-2.4,3.8-5.2,3.8
	c-2.9,0-5.3-2.1-5.3-5.8c0-5.1,3-7.3,5.9-7.3c2.6,0,4.8,1.6,4.8,5.3L49.2,89L41.3,90z M41.4,88.5l5.7-0.8c0-2.3-1.2-3.2-2.4-3.2
	C42.5,84.5,41.5,86.3,41.4,88.5z M57.4,83.5h5.3v1.1l-1.4,0.3l3.3,7.5l2.8-7.5L66,84.6v-1.1h4.3v1.1c-0.7,0.2-1.3,0.4-1.6,1.2
	l-4,10.1h-1.1l-3.2-7.2l-3.3,7.2h-1.2L52,85.8c-0.3-0.8-0.5-1-1.7-1.3v-1.1h5.3v1.1l-1.4,0.3l2.9,7.5l2.4-5.5L59,85.7
	c-0.3-0.8-0.5-1-1.7-1.3v-0.9H57.4z M71.1,95.7v-1.1l1.2-0.3v-15l-1.5-0.4v-1c1.4-0.2,2.1-0.7,2.8-1.7l1,0.2v9
	c1.4-1.3,3-2.3,4.8-2.3s3.2,1.2,3.2,2.9v8.3l1.5,0.3v1.1h-4.9v-1.1l1.2-0.3V87c0-1.2-0.6-1.9-1.7-1.9c-0.9,0-2.4,0.4-3.9,1.7v7.4
	l1.5,0.3v1.1L71.1,95.7L71.1,95.7z M97.4,89.4c0,4-3,6.7-6.4,6.7s-6.1-2.5-6.1-6.4c0-4,3-6.7,6.4-6.7C94.7,83,97.4,85.5,97.4,89.4z
	 M95,89.9c0-3.4-1.8-5.4-3.9-5.4c-2,0-3.7,1.4-3.7,4.6c0,3.4,1.8,5.4,3.9,5.4C93.3,94.5,95,93.2,95,89.9z M99.7,84.9l-1.5-0.3v-1.1
	h3.8v8.6c0,1.2,0.6,1.9,1.7,1.9c0.9,0,2.4-0.4,3.9-1.7v-7.4l-1.5-0.3v-1.1h3.8v10.1h1.5v1.1c-1,0.2-2,0.6-2.8,1.3l-1-0.2l0.1-2.1
	c-1.5,1.4-3.1,2.4-4.9,2.4s-3.2-1.2-3.2-2.9L99.7,84.9L99.7,84.9z M113.9,95.7h-0.7l-0.6-3.5l0.9-0.2c0.7,1.5,2.1,2.8,3.9,2.8
	c1.6,0,2.2-1.1,2.2-1.9c0-2.7-6.6-2.2-6.6-6.3c0-1.9,1.7-3.5,3.8-3.5c1.2,0,2.2,0.4,2.7,0.8l0.1-0.4h0.9l0.6,3.1l-0.9,0.2
	c-0.4-0.8-1.3-2.3-3.2-2.3c-1.3,0-1.8,0.8-1.8,1.5c0,2.5,6.5,1.9,6.5,6.1c0,2.4-2.1,4-4.4,4c-1.2,0-2.7-0.7-3.2-1.3L113.9,95.7z
	 M125.4,90c0.1,2.2,1.6,4,3.6,4c1.8,0,3-0.8,3.9-2.1l0.6,0.4c-0.5,2.2-2.4,3.8-5.2,3.8c-2.9,0-5.3-2.1-5.3-5.8c0-5.1,3-7.3,5.9-7.3
	c2.6,0,4.8,1.6,4.8,5.3l-0.5,0.7L125.4,90z M125.5,88.5l5.7-0.8c0-2.3-1.2-3.2-2.4-3.2C126.6,84.5,125.6,86.3,125.5,88.5z
	 M140.8,95.7l-1.1-5l1.4-0.5c0.8,1.9,2.5,4.2,5.5,4.2c1.9,0,3.8-1,3.8-3.5c0-4.6-9.8-3.7-9.8-9.5c0-3.5,2.7-5.2,5.7-5.2
	c2.1,0,3.2,0.9,3.6,1.4l0.3-0.9h1.2l1.2,4.6l-1.4,0.5c-0.8-1.8-2.5-3.7-4.9-3.7c-2.1,0-3.1,1.2-3.1,2.8c0,4.2,9.8,3.1,9.8,9.5
	c0,4.3-3.7,5.9-6.6,5.9c-1.7,0-3-0.6-4.2-1.3l-0.3,0.9h-1.1V95.7z M165.4,85.4c0,0.9-0.8,1.4-1.7,1.4c-0.5-1.2-1.2-1.9-2.8-1.9
	c-2.2,0-3.9,1.8-3.9,4.9c0,2.6,1.7,4.3,3.9,4.3c1.7,0,2.9-0.8,3.7-1.9l0.6,0.4c-0.4,1.9-2.2,3.5-5.2,3.5c-2.9,0-5.4-2-5.4-5.7
	c0-4.6,3.7-7.3,7.1-7.3C163.5,83,165.4,83.8,165.4,85.4z M166.4,95.7v-1.1l1.2-0.3v-15l-1.5-0.4v-1c1.4-0.2,2.1-0.7,2.8-1.7l1,0.2v9
	c1.4-1.3,3-2.3,4.8-2.3s3.2,1.2,3.2,2.9v8.3l1.5,0.3v1.1h-4.9v-1.1l1.2-0.3V87c0-1.2-0.6-1.9-1.7-1.9c-0.9,0-2.4,0.4-3.9,1.7v7.4
	l1.5,0.3v1.1L166.4,95.7L166.4,95.7z M192.7,89.4c0,4-3,6.7-6.4,6.7s-6.1-2.5-6.1-6.4c0-4,3-6.7,6.4-6.7S192.7,85.5,192.7,89.4z
	 M190.3,89.9c0-3.4-1.8-5.4-3.9-5.4c-2,0-3.7,1.4-3.7,4.6c0,3.4,1.8,5.4,3.9,5.4C188.6,94.5,190.3,93.2,190.3,89.9z M206.6,89.4
	c0,4-3,6.7-6.4,6.7s-6.1-2.5-6.1-6.4c0-4,3-6.7,6.4-6.7S206.6,85.5,206.6,89.4z M204.2,89.9c0-3.4-1.8-5.4-3.9-5.4
	c-2,0-3.7,1.4-3.7,4.6c0,3.4,1.8,5.4,3.9,5.4C202.6,94.5,204.2,93.2,204.2,89.9z M207.7,95.7v-1.1l1.3-0.3v-15l-1.5-0.4v-1
	c1.4-0.2,2.1-0.7,2.8-1.7l1,0.2v17.9l1.3,0.3v1.1H207.7z M231.4,89.4c0,4-3,6.7-6.4,6.7s-6.1-2.5-6.1-6.4c0-4,3-6.7,6.4-6.7
	C228.7,83,231.4,85.5,231.4,89.4z M228.9,89.9c0-3.4-1.8-5.4-3.9-5.4c-2,0-3.7,1.4-3.7,4.6c0,3.4,1.8,5.4,3.9,5.4
	C227.3,94.5,228.9,93.2,228.9,89.9z M241.7,77.8c0,1-0.8,1.5-1.6,1.5c-0.1-0.7-0.6-1.5-1.6-1.5c-0.9,0-2.1,0.7-2.1,3v2.8h3.2v1.5
	h-3.2v9.3l1.9,0.3v1.1h-5.5v-1.1l1.3-0.3v-9.3h-1.9V84l1.9-0.3V82c0-3.7,2.3-5.9,5.1-5.9C240.3,76.1,241.7,76.6,241.7,77.8z
	 M4.2,117.1v6l1.8,0.3v1.3H0v-1.3l1.5-0.3v-16L0,106.8v-1.3h7.5c3.7,0,6.6,2.2,6.6,5.7c0,4-2.9,6.1-6.8,6.1
	C6.1,117.4,4.6,117.2,4.2,117.1z M4.2,107.2v8.1c0.4,0.1,1.4,0.5,2.5,0.5c2.7,0,4.6-1,4.6-3.9c0-3-1.7-4.7-5-4.7H4.2z M16.8,113.9
	l-1.5-0.3v-1.1h3.8v8.6c0,1.2,0.6,1.9,1.7,1.9c0.9,0,2.4-0.4,3.9-1.7v-7.4l-1.5-0.3v-1.1H27v10.1h1.5v1.1c-1,0.2-2,0.6-2.8,1.3
	l-1-0.2l0.1-2.1c-1.5,1.4-3.1,2.4-4.9,2.4s-3.2-1.2-3.2-2.9v-8.3H16.8z M32.5,113.9c1-1.1,2.5-1.9,4.2-1.9c2.9,0,5.3,2.1,5.3,5.8
	c0,5.1-3.7,7.3-6.6,7.3c-1.7,0-2.9-0.5-3.8-1.2l-0.5,0.8l-1-0.2v-16.3l-1.5-0.4v-1c1.4-0.2,2.1-0.7,2.8-1.7l1,0.2L32.5,113.9
	L32.5,113.9z M32.5,115.6v7.1c0.5,0.3,1.5,0.7,2.6,0.7c2.1,0,4.4-1.4,4.4-5c0-2.6-1.5-4.3-3.7-4.3C34.6,114.1,33.3,114.7,32.5,115.6
	z M43.1,124.7v-1.1l1.3-0.3v-15l-1.5-0.4v-1c1.4-0.2,2.1-0.7,2.8-1.7l1,0.2v17.9l1.3,0.3v1.1H43.1z M49.4,124.7v-1.1l1.3-0.3V115
	l-1.5-0.4v-1c1.4-0.2,2.1-0.7,2.8-1.7l1,0.2v11.2l1.3,0.3v1.1C54.3,124.7,49.4,124.7,49.4,124.7z M52,107c0.8,0,1.5,0.6,1.5,1.5
	c0,0.8-0.6,1.5-1.5,1.5c-0.8,0-1.5-0.6-1.5-1.5C50.6,107.6,51.2,107,52,107z M66.1,114.4c0,0.9-0.8,1.4-1.7,1.4
	c-0.5-1.2-1.2-1.9-2.8-1.9c-2.2,0-3.9,1.8-3.9,4.9c0,2.6,1.7,4.3,3.9,4.3c1.7,0,2.9-0.8,3.7-1.9l0.6,0.4c-0.4,1.9-2.2,3.5-5.3,3.5
	c-2.9,0-5.4-2-5.4-5.7c0-4.6,3.7-7.3,7.1-7.3C64.2,112,66.1,112.8,66.1,114.4z M72.3,115.3c0-6.1,4.6-10.2,9.8-10.2
	c3.2,0,5.3,1.3,6.2,2.1l0.3-0.8h1l1.2,4.6l-1.2,0.5c-0.9-1.7-3.1-4.3-7.1-4.3c-3.7,0-7.4,2.1-7.4,7.5c0,5.2,3.5,8.5,7.6,8.5
	c3.5,0,6.2-2.6,7.2-4.8l1.3,0.5l-0.8,3.9c-0.3,0-0.6,0-1,0.2c-1.2,0.4-3.2,2.2-7.1,2.2C76.5,125.1,72.3,121.3,72.3,115.3z
	 M105.4,118.4c0,4-3,6.7-6.4,6.7s-6.1-2.5-6.1-6.4c0-4,3-6.7,6.4-6.7C102.7,112,105.4,114.5,105.4,118.4z M103,118.9
	c0-3.4-1.8-5.4-3.9-5.4c-2,0-3.7,1.4-3.7,4.6c0,3.4,1.8,5.4,3.9,5.4C101.3,123.5,103,122.2,103,118.9z M106.7,124.7v-1.1l1.2-0.3
	V115l-1.5-0.4v-1c1.4-0.2,2.1-0.7,2.8-1.7l1,0.2l-0.1,2.1c1.3-1.2,2.7-2.1,4.3-2.1c1.5,0,2.8,0.9,3.1,2.1c1.3-1.2,2.6-2.1,4.3-2.1
	c1.8,0,3.2,1.2,3.2,2.9v8.3l1.5,0.3v1.1h-4.9v-1.1l1.2-0.3V116c0-1.2-0.6-1.9-1.7-1.9c-0.8,0-2.1,0.3-3.3,1.4v7.7l1.5,0.3v1.1h-4.9
	v-1.1l1.2-0.3V116c0-1.2-0.6-1.9-1.7-1.9c-0.8,0-2.1,0.3-3.3,1.4v7.7l1.5,0.3v1.1L106.7,124.7L106.7,124.7z M127.9,124.7v-1.1
	l1.2-0.3V115l-1.5-0.4v-1c1.4-0.2,2.1-0.7,2.8-1.7l1,0.2l-0.1,2.1c1.3-1.2,2.7-2.1,4.3-2.1c1.5,0,2.8,0.9,3.1,2.1
	c1.3-1.2,2.6-2.1,4.3-2.1c1.8,0,3.2,1.2,3.2,2.9v8.3l1.5,0.3v1.1h-4.9v-1.1l1.2-0.3V116c0-1.2-0.6-1.9-1.7-1.9
	c-0.8,0-2.1,0.3-3.3,1.4v7.7l1.5,0.3v1.1h-4.9v-1.1l1.2-0.3V116c0-1.2-0.6-1.9-1.7-1.9c-0.8,0-2.1,0.3-3.3,1.4v7.7l1.5,0.3v1.1
	L127.9,124.7L127.9,124.7z M149.6,113.9l-1.5-0.3v-1.1h3.8v8.6c0,1.2,0.6,1.9,1.7,1.9c0.9,0,2.4-0.4,3.9-1.7v-7.4l-1.5-0.3v-1.1h3.8
	v10.1h1.5v1.1c-1,0.2-2,0.6-2.8,1.3l-1-0.2l0.1-2.1c-1.5,1.4-3.1,2.4-4.9,2.4c-1.8,0-3.2-1.2-3.2-2.9L149.6,113.9L149.6,113.9z
	 M162.7,124.7v-1.1l1.2-0.3V115l-1.5-0.4v-1c1.4-0.2,2.1-0.7,2.8-1.7l1,0.2l-0.1,2.4c1.5-1.4,3.1-2.4,4.9-2.4c1.8,0,3.2,1.2,3.2,2.9
	v8.3l1.5,0.3v1.1h-4.9v-1.1l1.2-0.3V116c0-1.2-0.6-1.9-1.7-1.9c-0.9,0-2.4,0.4-3.9,1.7v7.4l1.5,0.3v1.1L162.7,124.7L162.7,124.7z
	 M177,124.7v-1.1l1.3-0.3V115l-1.5-0.4v-1c1.4-0.2,2.1-0.7,2.8-1.7l1,0.2v11.2l1.3,0.3v1.1C181.9,124.7,177,124.7,177,124.7z
	 M179.6,107c0.8,0,1.5,0.6,1.5,1.5c0,0.8-0.6,1.5-1.5,1.5c-0.8,0-1.5-0.6-1.5-1.5C178.2,107.6,178.8,107,179.6,107z M193.7,114.4
	c0,0.9-0.8,1.4-1.7,1.4c-0.5-1.2-1.2-1.9-2.8-1.9c-2.2,0-3.9,1.8-3.9,4.9c0,2.6,1.7,4.3,3.9,4.3c1.7,0,2.9-0.8,3.7-1.9l0.6,0.4
	c-0.4,1.9-2.2,3.5-5.3,3.5c-2.9,0-5.4-2-5.4-5.7c0-4.6,3.7-7.3,7.1-7.3C191.8,112,193.7,112.8,193.7,114.4z M205.8,123.2l0.3,0.6
	c-0.1,0.2-0.9,1.3-2.2,1.3s-1.9-0.8-1.9-1.5c-0.7,1-2,1.6-3.5,1.6c-2.4,0-3.5-1.6-3.5-2.9c0-2,1.3-3.2,3.5-3.6l3.5-0.6v-2.6
	c0-1-0.7-1.8-1.9-1.8c-1.1,0-1.7,0.5-2.1,1c0.4,1.8-1.2,2.7-2.7,1.9c0.1-2.6,2.6-4.4,5.1-4.4c2.8,0,3.9,1.7,3.9,3.8v6.8
	c0,0.5,0.3,0.8,0.7,0.8C205.3,123.4,205.6,123.3,205.8,123.2z M201.9,121.5v-2.1l-2.8,0.6c-0.8,0.1-1.9,0.6-1.9,1.9
	c0,0.9,0.7,1.7,2,1.7C200.5,123.5,201.5,122.6,201.9,121.5z M207.7,122.5v-8.6h-1.9v-1.1c1.6-0.3,2.6-1.7,3.2-3.3l1,0.2v2.8h3.2v1.5
	H210v8.1c0,0.9,0.4,1.4,1.2,1.4c0.6,0,1.1-0.3,1.4-0.7l0.6,0.5c-0.3,0.9-1.4,1.9-2.8,1.9C208.9,125.1,207.7,124.2,207.7,122.5z
	 M214.6,124.7v-1.1l1.3-0.3V115l-1.5-0.4v-1c1.4-0.2,2.1-0.7,2.8-1.7l1,0.2v11.2l1.3,0.3v1.1C219.5,124.7,214.6,124.7,214.6,124.7z
	 M217.2,107c0.8,0,1.5,0.6,1.5,1.5c0,0.8-0.6,1.5-1.5,1.5c-0.8,0-1.5-0.6-1.5-1.5S216.4,107,217.2,107z M233,118.4
	c0,4-3,6.7-6.4,6.7s-6.1-2.5-6.1-6.4c0-4,3-6.7,6.4-6.7C230.3,112,233,114.5,233,118.4z M230.6,118.9c0-3.4-1.8-5.4-3.9-5.4
	c-2,0-3.7,1.4-3.7,4.6c0,3.4,1.8,5.4,3.9,5.4C228.9,123.5,230.6,122.2,230.6,118.9z M234.3,124.7v-1.1l1.2-0.3V115l-1.5-0.4v-1
	c1.4-0.2,2.1-0.7,2.8-1.7l1,0.2l-0.1,2.4c1.5-1.4,3.1-2.4,4.9-2.4c1.8,0,3.2,1.2,3.2,2.9v8.3l1.5,0.3v1.1h-4.9v-1.1l1.2-0.3V116
	c0-1.2-0.6-1.9-1.7-1.9c-0.9,0-2.4,0.4-3.9,1.7v7.4l1.5,0.3v1.1L234.3,124.7L234.3,124.7z M249.6,124.7h-0.7l-0.6-3.5l0.9-0.2
	c0.7,1.5,2.1,2.8,3.9,2.8c1.6,0,2.2-1.1,2.2-1.9c0-2.7-6.6-2.2-6.6-6.3c0-1.9,1.7-3.5,3.8-3.5c1.2,0,2.2,0.4,2.7,0.8l0.1-0.4h0.9
	l0.6,3.1l-0.9,0.2c-0.4-0.8-1.3-2.3-3.2-2.3c-1.3,0-1.8,0.8-1.8,1.5c0,2.5,6.5,1.9,6.5,6.1c0,2.4-2.1,4-4.4,4
	c-1.2,0-2.7-0.7-3.2-1.3L249.6,124.7z"/>
<g>
	<path id="XMLID_2_" class="st1" d="M135.4,19.1h14.9V8.2c-0.2-0.2-8.3-8-8.6-8.2h-27c-0.2,0.2-8.1,8-8.3,8.2v20
		c0.2,0.2,7.7,7.8,8,8.1h20.9v11.6h-13.8v-6.6h-15.1v10.9c0.2,0.2,8.1,8,8.3,8.2h27c0.2-0.2,8.3-8,8.6-8.2v-20
		c-0.2-0.2-7.7-7.8-8-8.1h-20.8V12.5h13.8v6.6H135.4z"/>
</g>
</svg>
